<svg width="448" height="159" viewBox="0 0 448 159" fill="none" xmlns="http://www.w3.org/2000/svg">
<path d="M391.273 23.9118C359.19 18.2362 328.582 39.647 322.912 71.7275C317.236 103.808 338.647 134.413 370.725 140.089C402.808 145.764 433.416 124.356 439.089 92.2731C444.762 60.1927 423.356 29.5822 391.273 23.9118ZM373.905 122.126C351.744 118.206 336.958 97.0657 340.877 74.9021C344.797 52.7436 365.937 37.9551 388.096 41.8774C410.257 45.7946 425.046 66.9349 421.126 89.0985C417.206 111.254 396.063 126.043 373.905 122.126Z" fill="black"/>
<path d="M395.07 109.407C392.212 109.407 389.423 107.97 387.813 105.36C385.34 101.356 386.583 96.1062 390.584 93.6308C393.572 91.7857 395.665 88.8918 396.471 85.4799C397.278 82.0731 396.706 78.5488 394.861 75.5605C392.388 71.5591 393.629 66.3072 397.63 63.8343C401.634 61.3564 406.883 62.5992 409.359 66.6057C413.598 73.4654 414.909 81.5601 413.054 89.4048C411.199 97.2443 406.399 103.897 399.536 108.133C398.143 108.993 396.596 109.407 395.07 109.407Z" fill="black"/>
<path d="M58.65 23.85C65.35 23.85 71.3 25.2 76.5 27.9C81.7 30.5 85.75 34.2 88.65 39C91.65 43.7 93.15 49.05 93.15 55.05C93.15 59.95 91.8 64.35 89.1 68.25C86.5 72.15 82.9 75.3 78.3 77.7C85.1 79.3 90.45 82.5 94.35 87.3C98.25 92.1 100.2 98.2 100.2 105.6C100.2 112.4 98.55 118.5 95.25 123.9C92.05 129.3 87.5 133.5 81.6 136.5C75.8 139.5 69.2 141 61.8 141H22.8C20.6 141 18.75 140.25 17.25 138.75C15.75 137.25 15 135.4 15 133.2V31.65C15 29.35 15.75 27.5 17.25 26.1C18.75 24.6 20.6 23.85 22.8 23.85H58.65ZM58.65 72C64.55 72 69.25 70.55 72.75 67.65C76.35 64.75 78.15 60.55 78.15 55.05C78.15 49.55 76.35 45.4 72.75 42.6C69.25 39.7 64.55 38.25 58.65 38.25H30.6V72H58.65ZM61.8 126.6C68.8 126.6 74.45 124.8 78.75 121.2C83.05 117.5 85.2 112.3 85.2 105.6C85.2 99.4 83.05 94.65 78.75 91.35C74.55 88.05 68.9 86.4 61.8 86.4H30.6V126.6H61.8ZM206.457 130.05C206.957 131.35 207.207 132.45 207.207 133.35C207.207 135.45 206.457 137.25 204.957 138.75C203.457 140.25 201.607 141 199.407 141C197.907 141 196.457 140.6 195.057 139.8C193.757 138.9 192.807 137.7 192.207 136.2L183.807 115.2H129.957L121.407 136.2C120.707 137.7 119.707 138.9 118.407 139.8C117.107 140.6 115.707 141 114.207 141C112.007 141 110.157 140.25 108.657 138.75C107.257 137.15 106.557 135.3 106.557 133.2C106.557 132.2 106.807 131.05 107.307 129.75L149.457 29.1C150.957 25.6 153.407 23.85 156.807 23.85C160.407 23.85 162.857 25.6 164.157 29.1L206.457 130.05ZM178.557 102.3L157.107 48.9L135.207 102.3H178.557ZM267.976 23.85C274.676 23.85 280.626 25.2 285.826 27.9C291.026 30.5 295.076 34.2 297.976 39C300.976 43.7 302.476 49.05 302.476 55.05C302.476 59.95 301.126 64.35 298.426 68.25C295.826 72.15 292.226 75.3 287.626 77.7C294.426 79.3 299.776 82.5 303.676 87.3C307.576 92.1 309.526 98.2 309.526 105.6C309.526 112.4 307.876 118.5 304.576 123.9C301.376 129.3 296.826 133.5 290.926 136.5C285.126 139.5 278.526 141 271.126 141H232.126C229.926 141 228.076 140.25 226.576 138.75C225.076 137.25 224.326 135.4 224.326 133.2V31.65C224.326 29.35 225.076 27.5 226.576 26.1C228.076 24.6 229.926 23.85 232.126 23.85H267.976ZM267.976 72C273.876 72 278.576 70.55 282.076 67.65C285.676 64.75 287.476 60.55 287.476 55.05C287.476 49.55 285.676 45.4 282.076 42.6C278.576 39.7 273.876 38.25 267.976 38.25H239.926V72H267.976ZM271.126 126.6C278.126 126.6 283.776 124.8 288.076 121.2C292.376 117.5 294.526 112.3 294.526 105.6C294.526 99.4 292.376 94.65 288.076 91.35C283.876 88.05 278.226 86.4 271.126 86.4H239.926V126.6H271.126Z" fill="black"/>
<path d="M63.65 23.85C70.35 23.85 76.3 25.2 81.5 27.9C86.7 30.5 90.75 34.2 93.65 39C96.65 43.7 98.15 49.05 98.15 55.05C98.15 59.95 96.8 64.35 94.1 68.25C91.5 72.15 87.9 75.3 83.3 77.7C90.1 79.3 95.45 82.5 99.35 87.3C103.25 92.1 105.2 98.2 105.2 105.6C105.2 112.4 103.55 118.5 100.25 123.9C97.05 129.3 92.5 133.5 86.6 136.5C80.8 139.5 74.2 141 66.8 141H27.8C25.6 141 23.75 140.25 22.25 138.75C20.75 137.25 20 135.4 20 133.2V31.65C20 29.35 20.75 27.5 22.25 26.1C23.75 24.6 25.6 23.85 27.8 23.85H63.65ZM63.65 72C69.55 72 74.25 70.55 77.75 67.65C81.35 64.75 83.15 60.55 83.15 55.05C83.15 49.55 81.35 45.4 77.75 42.6C74.25 39.7 69.55 38.25 63.65 38.25H35.6V72H63.65ZM66.8 126.6C73.8 126.6 79.45 124.8 83.75 121.2C88.05 117.5 90.2 112.3 90.2 105.6C90.2 99.4 88.05 94.65 83.75 91.35C79.55 88.05 73.9 86.4 66.8 86.4H35.6V126.6H66.8ZM211.457 130.05C211.957 131.35 212.207 132.45 212.207 133.35C212.207 135.45 211.457 137.25 209.957 138.75C208.457 140.25 206.607 141 204.407 141C202.907 141 201.457 140.6 200.057 139.8C198.757 138.9 197.807 137.7 197.207 136.2L188.807 115.2H134.957L126.407 136.2C125.707 137.7 124.707 138.9 123.407 139.8C122.107 140.6 120.707 141 119.207 141C117.007 141 115.157 140.25 113.657 138.75C112.257 137.15 111.557 135.3 111.557 133.2C111.557 132.2 111.807 131.05 112.307 129.75L154.457 29.1C155.957 25.6 158.407 23.85 161.807 23.85C165.407 23.85 167.857 25.6 169.157 29.1L211.457 130.05ZM183.557 102.3L162.107 48.9L140.207 102.3H183.557ZM272.976 23.85C279.676 23.85 285.626 25.2 290.826 27.9C296.026 30.5 300.076 34.2 302.976 39C305.976 43.7 307.476 49.05 307.476 55.05C307.476 59.95 306.126 64.35 303.426 68.25C300.826 72.15 297.226 75.3 292.626 77.7C299.426 79.3 304.776 82.5 308.676 87.3C312.576 92.1 314.526 98.2 314.526 105.6C314.526 112.4 312.876 118.5 309.576 123.9C306.376 129.3 301.826 133.5 295.926 136.5C290.126 139.5 283.526 141 276.126 141H237.126C234.926 141 233.076 140.25 231.576 138.75C230.076 137.25 229.326 135.4 229.326 133.2V31.65C229.326 29.35 230.076 27.5 231.576 26.1C233.076 24.6 234.926 23.85 237.126 23.85H272.976ZM272.976 72C278.876 72 283.576 70.55 287.076 67.65C290.676 64.75 292.476 60.55 292.476 55.05C292.476 49.55 290.676 45.4 287.076 42.6C283.576 39.7 278.876 38.25 272.976 38.25H244.926V72H272.976ZM276.126 126.6C283.126 126.6 288.776 124.8 293.076 121.2C297.376 117.5 299.526 112.3 299.526 105.6C299.526 99.4 297.376 94.65 293.076 91.35C288.876 88.05 283.226 86.4 276.126 86.4H244.926V126.6H276.126Z" fill="black"/>
</svg>
