<svg xmlns="http://www.w3.org/2000/svg" width="269.333" height="269.333" preserveAspectRatio="xMidYMid meet" version="1.0" viewBox="0 0 202 202"><metadata>Created by potrace 1.11, written by Peter Selinger 2001-2013</metadata><g fill="#000" stroke="none"><path d="M889 1925 c-3 -2 -20 -7 -39 -10 -314 -54 -579 -273 -699 -576 -52 -131 -73 -343 -49 -482 55 -317 280 -592 578 -704 122 -46 223 -63 355 -59 131 5 142 6 241 37 152 47 270 118 383 230 119 118 198 258 247 437 22 81 27 288 8 382 -56 290 -261 551 -521 666 -125 56 -220 76 -364 80 -75 2 -138 2 -140 -1z m276 -300 c184 -47 331 -168 414 -340 49 -101 64 -167 64 -275 -1 -247 -136 -463 -358 -570 -221 -107 -479 -78 -670 75 -82 65 -129 125 -175 220 -61 129 -78 245 -55 380 66 369 421 601 780 510z" transform="translate(0.000000,202.000000) scale(0.100000,-0.100000)"/><path d="M1305 1308 c-36 -10 -56 -25 -77 -58 -28 -43 -28 -84 -1 -142 31 -63 35 -146 10 -195 -9 -17 -39 -50 -66 -73 -72 -61 -91 -122 -57 -188 31 -60 112 -85 176 -54 66 32 138 110 180 196 41 85 51 125 51 218 1 94 -43 219 -93 265 -30 28 -85 42 -123 31z" transform="translate(0.000000,202.000000) scale(0.100000,-0.100000)"/></g></svg>